<svg xmlns="http://www.w3.org/2000/svg" version="1.1" xmlns:xlink="http://www.w3.org/1999/xlink" xmlns:svgjs="http://svgjs.dev/svgjs" width="1000" height="1000" viewBox="0 0 1000 1000"><rect width="1000" height="1000" fill="#ffffff"></rect><g transform="matrix(0.7,0,0,0.7,150.0000000000001,106.25)"><svg viewBox="0 0 320 360" data-background-color="#ffffff" preserveAspectRatio="xMidYMid meet" height="1125" width="1000" xmlns="http://www.w3.org/2000/svg" xmlns:xlink="http://www.w3.org/1999/xlink"><g id="tight-bounds" transform="matrix(1,0,0,1,0,0)"><svg viewBox="0 0 320 360" height="360" width="320"><g><svg></svg></g><g><svg viewBox="0 0 320 360" height="360" width="320"><g><path xmlns="http://www.w3.org/2000/svg" d="M20.961 227.22l3.726 4.658-1.863-6.056c-0.466-2.795-3.726 0.466-1.863 1.398M25.153 224.425c1.397 2.329 2.795 4.658 2.795 6.987 0 3.261 2.795 4.658 5.123 5.589-3.261-3.726-5.124-13.974-7.918-12.576M204.017 26.929c7.918 0 15.371-0.932 23.756 0.931 20.495 5.124 37.729 15.371 49.374 29.811l32.606 52.169c1.397 13.042 4.192 27.482 3.726 43.319 3.261 0 2.795-4.658 6.521-5.59-3.726 9.316-5.59 20.961-6.521 34.469-2.329-7.453 0-18.632 0.466-24.687-3.261 5.124-5.124 1.397-5.124-0.932 0.466-3.726-1.397-3.261-2.795-4.658-5.124-4.658-8.384-9.782-12.11-17.7 2.329-6.055 2.795-14.905-4.658-19.563-2.329-1.397-5.124-3.726-6.521-7.453-1.863-5.124-5.124-11.179-4.193-19.097 0.466-2.329-6.987 5.124-11.179 1.863-18.166-12.576-36.332-27.016-58.224-39.127-11.645 0-20.029-4.192-24.221-9.316-3.726-4.658-0.932-10.713 4.658-11.179 3.261 0 6.987-0.932 9.782 0.932 0.466-1.863 2.329-4.192 4.657-4.192M157.904 16.215l0.932 0.466c4.658 0.932 6.987 7.453 12.11 5.124 0 3.261 0.466 6.521-0.466 8.85-1.397 3.726-5.59 3.726-8.85 3.726-31.208-1.863-49.374 11.179-68.471 22.358-5.124 3.261-10.713 5.59-14.906 9.782-20.029 18.632-41.921 35.866-47.045 70.335l-4.192 38.195c-0.466 4.192-5.124 8.384-4.192 13.508l3.26 22.824c-3.261-3.261-5.124 0.932-4.192 2.795 0.466 1.397 2.329 6.055 5.124 1.863 3.726 6.987 7.453 20.495 12.576 26.55 15.837 18.632 36.332 35.4 53.101 52.169 4.192-0.932 7.453-0.932 8.384-3.727 1.397 2.795-1.397 5.59-3.726 6.056 7.453 4.658 15.837 8.85 27.016 9.781 14.44 0.932 27.948 3.261 40.524 6.522 6.521-1.863 13.042-2.795 20.029-3.261 2.329 0 3.726-3.726 6.521-4.658l0.466-4.658c2.795 4.192 2.329-1.397 0.466-4.192 3.261 2.795 4.192 5.124 5.589 6.987 0-1.397 3.726-6.521 3.727-0.466l0.931-6.055c1.397-0.932 1.863 5.124 3.261 0.931 1.397-4.192 4.192-0.932 6.987-2.329-0.932 1.863-0.466 5.59 2.794 3.261l3.727-3.261c2.329 5.59 6.055 3.261 7.918 2.329 20.495-13.042 40.99-28.413 60.553-43.784l-0.466 6.055 2.329-7.453c2.329 2.329 4.192 0.466 5.124-0.931 2.795-4.658 6.521-9.316 12.577-13.508-7.453 20.029-16.303 35.866-27.482 48.908l-4.658 5.59c0 3.261-0.932 7.453-4.658 7.918-1.863 0.466-5.59-0.932-8.384 1.863-1.397 1.863 3.261 5.59-0.466 2.795-3.261-2.329-6.521 0-10.248 0.932-2.795 0.932 1.863 3.726 2.795 5.589 0.932 1.863 1.863 3.726 1.398 6.056l-5.124-5.59c-6.055 3.261-9.782 9.316-14.906 13.974-2.329 1.863-1.397 5.124-1.397 7.918-3.261 0-6.987-0.932-8.85 0.932-1.397 1.863-0.932 4.658-0.932 7.453-4.658-0.466-5.124-7.453-9.315-6.056-4.192 0.932-8.85 1.397-12.577 3.727 2.795 5.59-4.658 2.329-3.726 3.26-6.987-4.192-13.042-7.453-20.495-4.658-15.837-5.124-35.4-2.795-49.84-0.931 0-2.329 0.466-4.658-0.466-5.124-0.932 2.329-3.726 1.397-3.26 1.397-8.85-6.055-17.7-9.782-27.016-14.905-8.384 0.932-16.303-3.261-18.632-5.59-6.521-6.055-13.974-2.795-20.029-4.192-13.042-3.261-17.7-16.769-19.098-26.084-0.932-4.658-4.658-6.521-6.055-6.056-6.055-19.563-15.371-37.263-22.824-55.429-1.863-4.658-1.397-9.316-1.397-14.44 2.329 0.932 4.658 0.466 4.192-2.794-2.329-15.371-7.918-27.016-13.974-38.195 3.261-15.837 3.726-34.469 11.179-48.443 6.521-12.576 18.632-19.098 27.016-29.811 2.795-3.726 2.795-8.85 5.59-12.11 9.316-9.316 18.632-19.098 28.879-27.482 4.658-3.726 10.247 0 17.234-1.397 2.329-8.384 11.645-15.837 20.495-13.508 3.726 0.932 11.179-8.85 13.508-9.782 3.726-1.397 1.863 3.726 1.863 6.987 8.85-6.987 20.961-10.713 32.14-14.906" fill="#ff908b" fill-rule="nonzero" stroke="none" stroke-width="1" stroke-linecap="butt" stroke-linejoin="miter" stroke-miterlimit="10" stroke-dasharray="" stroke-dashoffset="0" font-family="none" font-weight="none" font-size="none" text-anchor="none" style="mix-blend-mode: normal" data-fill-palette-color="tertiary"></path></g><g transform="matrix(1,0,0,1,99.11254094940358,90)"><svg viewBox="0 0 121.77491810119284 180" height="180" width="121.77491810119284"><g><svg viewBox="0 0 121.77491810119284 180" height="180" width="121.77491810119284"><g><svg viewBox="0 0 192 283.80228489483557" height="180" width="121.77491810119284"><g transform="matrix(1,0,0,1,0,133.14050078224986)"><svg viewBox="0 0 192 150.66178411258574" height="150.66178411258574" width="192"><g><svg viewBox="0 0 192 150.66178411258574" height="150.66178411258574" width="192"><g><svg viewBox="0 0 192 99.220556745182" height="99.220556745182" width="192"><g transform="matrix(1,0,0,1,0,0)"><svg width="192" viewBox="2.8499999046325684 -35.45000076293945 70.05000305175781 36.20000076293945" height="99.220556745182" data-palette-color="#ff908b"><path d="M19.55 0.75L19.55 0.75Q15.65 0.75 12.55-0.45 9.45-1.65 7.3-3.98 5.15-6.3 4-9.65 2.85-13 2.85-17.35L2.85-17.35Q2.85-21.7 4.17-25.05 5.5-28.4 7.8-30.73 10.1-33.05 13.2-34.25 16.3-35.45 19.85-35.45L19.85-35.45Q22-35.45 23.75-35.13 25.5-34.8 26.8-34.4 28.1-34 28.95-33.55 29.8-33.1 30.15-32.9L30.15-32.9 28.3-27.75Q27.1-28.5 24.88-29.18 22.65-29.85 20.05-29.85L20.05-29.85Q17.8-29.85 15.85-29.08 13.9-28.3 12.48-26.75 11.05-25.2 10.25-22.85 9.45-20.5 9.45-17.4L9.45-17.4Q9.45-14.65 10.08-12.35 10.7-10.05 12-8.38 13.3-6.7 15.3-5.78 17.3-4.85 20.1-4.85L20.1-4.85Q23.45-4.85 25.55-5.53 27.65-6.2 28.8-6.8L28.8-6.8 30.5-1.65Q29.9-1.25 28.88-0.85 27.85-0.45 26.45-0.08 25.05 0.3 23.3 0.53 21.55 0.75 19.55 0.75ZM37.75-34.65L43.6-34.65Q44.7-32.75 46.05-30 47.4-27.25 48.8-24.23 50.2-21.2 51.57-18.07 52.95-14.95 54.1-12.3L54.1-12.3Q55.25-14.95 56.6-18.07 57.95-21.2 59.35-24.23 60.75-27.25 62.1-30 63.45-32.75 64.55-34.65L64.55-34.65 70.25-34.65Q70.7-30.85 71.1-26.58 71.5-22.3 71.82-17.82 72.15-13.35 72.42-8.83 72.7-4.3 72.9 0L72.9 0 66.7 0Q66.5-6.05 66.22-12.45 65.95-18.85 65.4-24.85L65.4-24.85Q64.85-23.7 64.1-22.1 63.35-20.5 62.5-18.63 61.65-16.75 60.77-14.75 59.9-12.75 59.07-10.88 58.25-9 57.55-7.38 56.85-5.75 56.35-4.6L56.35-4.6 51.65-4.6Q51.15-5.75 50.45-7.4 49.75-9.05 48.92-10.93 48.1-12.8 47.22-14.8 46.35-16.8 45.5-18.65 44.65-20.5 43.9-22.13 43.15-23.75 42.6-24.85L42.6-24.85Q42.05-18.85 41.77-12.45 41.5-6.05 41.3 0L41.3 0 35.1 0Q35.3-4.3 35.57-8.9 35.85-13.5 36.17-18.03 36.5-22.55 36.9-26.8 37.3-31.05 37.75-34.65L37.75-34.65Z" opacity="1" transform="matrix(1,0,0,1,0,0)" fill="#ff908b" class="undefined-text-0" data-fill-palette-color="primary" id="text-0"></path></svg></g></svg></g><g transform="matrix(1,0,0,1,0,113.69921726766593)"><svg viewBox="0 0 192 36.96256684491979" height="36.96256684491979" width="192"><g transform="matrix(1,0,0,1,0,0)"><svg width="192" viewBox="4.25 -35.5 186.99000549316406 36" height="36.96256684491979" data-palette-color="#ff908b"><path d="M39.45 0L34.95 0 34.95-27.1 23.25-6.25 20.5-6.25 8.75-27.1 8.75 0 4.25 0 4.25-35.5 9-35.5 21.85-12.45 34.75-35.5 39.45-35.5 39.45 0ZM58.2 0.5L58.2 0.5Q55.25 0.5 52.85-0.58 50.45-1.65 48.7-3.53 46.95-5.4 46-7.85 45.05-10.3 45.05-13L45.05-13Q45.05-15.75 46-18.2 46.95-20.65 48.7-22.53 50.45-24.4 52.87-25.48 55.3-26.55 58.25-26.55L58.25-26.55Q61.15-26.55 63.55-25.48 65.95-24.4 67.72-22.53 69.5-20.65 70.45-18.2 71.4-15.75 71.4-13L71.4-13Q71.4-10.3 70.45-7.85 69.5-5.4 67.75-3.53 66-1.65 63.57-0.58 61.15 0.5 58.2 0.5ZM49.55-12.95L49.55-12.95Q49.55-10.25 50.72-8.05 51.9-5.85 53.85-4.58 55.8-3.3 58.2-3.3L58.2-3.3Q60.6-3.3 62.57-4.6 64.55-5.9 65.72-8.13 66.9-10.35 66.9-13.05L66.9-13.05Q66.9-15.75 65.72-17.95 64.55-20.15 62.57-21.45 60.6-22.75 58.2-22.75L58.2-22.75Q55.8-22.75 53.85-21.43 51.9-20.1 50.72-17.9 49.55-15.7 49.55-12.95ZM99.4-15.6L99.4 0 95 0 95-14.6Q95-18.75 93.72-20.68 92.45-22.6 89.85-22.6L89.85-22.6Q88.05-22.6 86.27-21.7 84.5-20.8 83.12-19.28 81.75-17.75 81.15-15.75L81.15-15.75 81.15 0 76.75 0 76.75-26.1 80.75-26.1 80.75-20.5Q81.8-22.35 83.45-23.7 85.1-25.05 87.2-25.8 89.3-26.55 91.6-26.55L91.6-26.55Q93.85-26.55 95.37-25.73 96.9-24.9 97.77-23.43 98.65-21.95 99.02-19.95 99.4-17.95 99.4-15.6L99.4-15.6ZM115.19 0.5L115.19 0.5Q111.94 0.5 109.09-0.58 106.24-1.65 104.19-3.8L104.19-3.8 105.89-6.9Q108.14-4.8 110.39-3.9 112.64-3 114.99-3L114.99-3Q117.69-3 119.39-4.03 121.09-5.05 121.09-7.05L121.09-7.05Q121.09-8.5 120.22-9.2 119.34-9.9 117.74-10.38 116.14-10.85 113.94-11.45L113.94-11.45Q111.24-12.25 109.39-13.15 107.54-14.05 106.59-15.4 105.64-16.75 105.64-18.8L105.64-18.8Q105.64-21.3 106.94-23.03 108.24-24.75 110.52-25.65 112.79-26.55 115.69-26.55L115.69-26.55Q118.59-26.55 120.94-25.65 123.29-24.75 124.99-23L124.99-23 122.99-19.95Q121.44-21.55 119.59-22.33 117.74-23.1 115.44-23.1L115.44-23.1Q114.09-23.1 112.79-22.78 111.49-22.45 110.64-21.63 109.79-20.8 109.79-19.3L109.79-19.3Q109.79-18.05 110.47-17.32 111.14-16.6 112.47-16.1 113.79-15.6 115.69-15L115.69-15Q118.64-14.15 120.82-13.3 122.99-12.45 124.19-11.1 125.39-9.75 125.39-7.35L125.39-7.35Q125.39-3.65 122.59-1.58 119.79 0.5 115.19 0.5ZM143.09-4.8L144.14-1.3Q143.59-1.05 142.64-0.65 141.69-0.25 140.44 0.05 139.19 0.35 137.79 0.35L137.79 0.35Q136.19 0.35 134.84-0.23 133.49-0.8 132.69-2.02 131.89-3.25 131.89-5.1L131.89-5.1 131.89-22.65 128.34-22.65 128.34-26.1 131.89-26.1 131.89-34.8 136.29-34.8 136.29-26.1 142.14-26.1 142.14-22.65 136.29-22.65 136.29-6.45Q136.39-5.05 137.24-4.38 138.09-3.7 139.24-3.7L139.24-3.7Q140.54-3.7 141.64-4.15 142.74-4.6 143.09-4.8L143.09-4.8ZM159.44 0.5L159.44 0.5Q156.49 0.5 154.06-0.58 151.64-1.65 149.86-3.53 148.09-5.4 147.11-7.85 146.14-10.3 146.14-13.05L146.14-13.05Q146.14-16.75 147.84-19.8 149.54-22.85 152.56-24.7 155.59-26.55 159.49-26.55L159.49-26.55Q163.44-26.55 166.36-24.68 169.29-22.8 170.91-19.78 172.54-16.75 172.54-13.25L172.54-13.25Q172.54-12.75 172.51-12.28 172.49-11.8 172.44-11.55L172.44-11.55 150.79-11.55Q150.99-9 152.21-7.03 153.44-5.05 155.39-3.93 157.34-2.8 159.59-2.8L159.59-2.8Q161.99-2.8 164.11-4 166.24-5.2 167.04-7.15L167.04-7.15 170.84-6.1Q169.99-4.2 168.31-2.7 166.64-1.2 164.36-0.35 162.09 0.5 159.44 0.5ZM150.64-14.6L150.64-14.6 168.44-14.6Q168.24-17.15 166.99-19.1 165.74-21.05 163.79-22.15 161.84-23.25 159.49-23.25L159.49-23.25Q157.19-23.25 155.24-22.15 153.29-21.05 152.06-19.1 150.84-17.15 150.64-14.6ZM191.24-26.25L191.24-22.25Q187.94-22.2 185.41-20.58 182.89-18.95 181.84-16.1L181.84-16.1 181.84 0 177.44 0 177.44-26.1 181.54-26.1 181.54-20.05Q182.89-22.75 185.11-24.43 187.34-26.1 189.79-26.3L189.79-26.3Q190.29-26.3 190.64-26.3 190.99-26.3 191.24-26.25L191.24-26.25Z" opacity="1" transform="matrix(1,0,0,1,0,0)" fill="#ff908b" class="undefined-text-1" data-fill-palette-color="secondary" id="text-1"></path></svg></g></svg></g></svg></g></svg></g><g transform="matrix(1,0,0,1,36.67199999999999,0)"><svg viewBox="0 0 118.65600000000002 118.66184025976591" height="118.66184025976591" width="118.65600000000002"><g><svg xmlns="http://www.w3.org/2000/svg" xmlns:xlink="http://www.w3.org/1999/xlink" version="1.1" x="0" y="0" viewBox="0.35833266377449036 0.3587188720703125 89.28327178955078 89.28766632080078" enable-background="new 0 0 90 90" xml:space="preserve" height="118.66184025976591" width="118.65600000000002" class="icon-icon-0" data-fill-palette-color="accent" id="icon-0"><polygon points="57.928,58.169 57.875,76.027 45.397,63.548 45.397,45.639 " fill="#ff908b" data-fill-palette-color="accent"></polygon><polygon points="76.027,57.875 58.475,57.927 45.826,45.279 63.432,45.279 " fill="#ff908b" data-fill-palette-color="accent"></polygon><polygon points="76.027,32.125 63.432,44.721 45.707,44.721 58.355,32.073 " fill="#ff908b" data-fill-palette-color="accent"></polygon><polygon points="44.838,45.59 44.838,63.314 32.125,76.027 32.074,58.355 " fill="#ff908b" data-fill-palette-color="accent"></polygon><polygon points="57.928,31.712 45.397,44.243 45.397,26.452 57.875,13.974 " fill="#ff908b" data-fill-palette-color="accent"></polygon><polygon points="44.838,26.687 44.838,44.291 32.074,31.526 32.125,13.974 " fill="#ff908b" data-fill-palette-color="accent"></polygon><polygon points="44.479,44.721 26.569,44.721 13.974,32.125 31.832,32.073 " fill="#ff908b" data-fill-palette-color="accent"></polygon><polygon points="44.36,45.279 31.712,57.927 13.974,57.875 26.569,45.279 " fill="#ff908b" data-fill-palette-color="accent"></polygon><rect x="58.48" y="58.48" width="18.049" height="18.049" fill="#ff908b" data-fill-palette-color="accent"></rect><polygon points="76.527,13.474 76.527,31.516 58.914,31.516 58.912,31.518 58.484,31.516 58.484,13.474 " fill="#ff908b" data-fill-palette-color="accent"></polygon><polygon points="31.518,30.971 31.516,31.516 13.474,31.516 13.474,13.474 31.516,13.474 31.516,30.968 " fill="#ff908b" data-fill-palette-color="accent"></polygon><rect x="13.471" y="58.48" width="18.05" height="18.049" fill="#ff908b" data-fill-palette-color="accent"></rect><rect x="67.864" y="35.981" transform="matrix(0.7071 -0.7071 0.7071 0.7071 -9.3022 67.5465)" width="18.042" height="18.042" fill="#ff908b" data-fill-palette-color="accent"></rect><rect x="35.979" y="4.094" transform="matrix(0.7071 -0.7071 0.7071 0.7071 3.9068 35.6621)" width="18.042" height="18.042" fill="#ff908b" data-fill-palette-color="accent"></rect><rect x="4.095" y="35.98" transform="matrix(0.7071 -0.7071 0.7071 0.7071 -27.9787 22.4536)" width="18.041" height="18.041" fill="#ff908b" data-fill-palette-color="accent"></rect><rect x="35.98" y="67.865" transform="matrix(0.7071 -0.7071 0.7071 0.7071 -41.1877 54.3437)" width="18.04" height="18.041" fill="#ff908b" data-fill-palette-color="accent"></rect></svg></g></svg></g><g></g></svg></g></svg></g></svg></g></svg></g><defs></defs></svg><rect width="320" height="360" fill="none" stroke="none" visibility="hidden"></rect></g></svg></g></svg>